<?xml version="1.0" encoding="UTF-8" standalone="no"?>
<!DOCTYPE svg PUBLIC "-//W3C//DTD SVG 1.1//EN"
 "http://www.w3.org/Graphics/SVG/1.1/DTD/svg11.dtd">
<!-- Generated by graphviz version 2.38.0 (20140413.2041)
 -->
<!-- Title: g Pages: 1 -->
<svg width="996pt" height="348pt"
 viewBox="0.00 0.00 996.00 348.00" xmlns="http://www.w3.org/2000/svg" xmlns:xlink="http://www.w3.org/1999/xlink">
<g id="graph0" class="graph" transform="scale(1 1) rotate(0) translate(4 344)">
<title>g</title>
<polygon fill="white" stroke="none" points="-4,4 -4,-344 992,-344 992,4 -4,4"/>
<g id="clust1" class="cluster"><title>cluster_debian</title>
<polygon fill="none" stroke="blue" stroke-dasharray="1,5" points="588,-208 588,-332 980,-332 980,-208 588,-208"/>
</g>
<g id="clust2" class="cluster"><title>cluster_kernel</title>
<polygon fill="none" stroke="blue" stroke-dasharray="1,5" points="8,-208 8,-332 305,-332 305,-208 8,-208"/>
</g>
<g id="clust3" class="cluster"><title>cluster_boot</title>
<polygon fill="none" stroke="blue" stroke-dasharray="1,5" points="122,-64 122,-188 618,-188 618,-64 122,-64"/>
</g>
<!-- debian -->
<g id="node1" class="node"><title>debian</title>
<text text-anchor="middle" x="939" y="-302.3" font-family="Times,serif" font-size="14.00">debian</text>
</g>
<!-- debian_submodule -->
<g id="node2" class="node"><title>debian_submodule</title>
<polygon fill="none" stroke="black" points="889,-324 886,-328 865,-328 862,-324 739,-324 739,-288 889,-288 889,-324"/>
<text text-anchor="middle" x="814" y="-302.3" font-family="Times,serif" font-size="14.00">debian_submodule</text>
</g>
<!-- userspace_initrd -->
<g id="node4" class="node"><title>userspace_initrd</title>
<polygon fill="none" stroke="black" points="733.5,-252 600.5,-252 596.5,-248 596.5,-216 729.5,-216 733.5,-220 733.5,-252"/>
<polyline fill="none" stroke="black" points="729.5,-248 596.5,-248 "/>
<polyline fill="none" stroke="black" points="729.5,-248 729.5,-216 "/>
<polyline fill="none" stroke="black" points="729.5,-248 733.5,-252 "/>
<text text-anchor="middle" x="665" y="-230.3" font-family="Times,serif" font-size="14.00">userspace_initrd</text>
</g>
<!-- debian_submodule&#45;&gt;userspace_initrd -->
<g id="edge1" class="edge"><title>debian_submodule&#45;&gt;userspace_initrd</title>
<path fill="none" stroke="black" d="M777.55,-287.876C757.362,-278.392 732.079,-266.513 710.592,-256.419"/>
<polygon fill="black" stroke="black" points="711.87,-253.153 701.331,-252.068 708.894,-259.488 711.87,-253.153"/>
</g>
<!-- local_overrides -->
<g id="node3" class="node"><title>local_overrides</title>
<polygon fill="none" stroke="black" points="715.5,-324 596.5,-324 596.5,-288 721.5,-288 721.5,-318 715.5,-324"/>
<polyline fill="none" stroke="black" points="715.5,-324 715.5,-318 "/>
<polyline fill="none" stroke="black" points="721.5,-318 715.5,-318 "/>
<text text-anchor="middle" x="659" y="-302.3" font-family="Times,serif" font-size="14.00">local_overrides</text>
</g>
<!-- local_overrides&#45;&gt;userspace_initrd -->
<g id="edge2" class="edge"><title>local_overrides&#45;&gt;userspace_initrd</title>
<path fill="none" stroke="black" d="M660.483,-287.697C661.144,-279.983 661.939,-270.712 662.676,-262.112"/>
<polygon fill="black" stroke="black" points="666.167,-262.367 663.534,-252.104 659.193,-261.769 666.167,-262.367"/>
</g>
<!-- initrd -->
<g id="node15" class="node"><title>initrd</title>
<polygon fill="none" stroke="black" points="538,-180 486,-180 482,-176 482,-144 534,-144 538,-148 538,-180"/>
<polyline fill="none" stroke="black" points="534,-176 482,-176 "/>
<polyline fill="none" stroke="black" points="534,-176 534,-144 "/>
<polyline fill="none" stroke="black" points="534,-176 538,-180 "/>
<text text-anchor="middle" x="510" y="-158.3" font-family="Times,serif" font-size="14.00">initrd</text>
</g>
<!-- userspace_initrd&#45;&gt;initrd -->
<g id="edge15" class="edge"><title>userspace_initrd&#45;&gt;initrd</title>
<path fill="none" stroke="black" d="M612.473,-215.901C591.622,-208.364 567.72,-198.768 547,-188 545.487,-187.214 543.96,-186.378 542.434,-185.506"/>
<polygon fill="black" stroke="black" points="544.149,-182.453 533.789,-180.233 540.503,-188.429 544.149,-182.453"/>
</g>
<!-- kernel -->
<g id="node5" class="node"><title>kernel</title>
<text text-anchor="middle" x="265" y="-302.3" font-family="Times,serif" font-size="14.00">kernel</text>
</g>
<!-- kernel_image -->
<g id="node6" class="node"><title>kernel_image</title>
<polygon fill="none" stroke="black" points="201.5,-252 92.5,-252 88.5,-248 88.5,-216 197.5,-216 201.5,-220 201.5,-252"/>
<polyline fill="none" stroke="black" points="197.5,-248 88.5,-248 "/>
<polyline fill="none" stroke="black" points="197.5,-248 197.5,-216 "/>
<polyline fill="none" stroke="black" points="197.5,-248 201.5,-252 "/>
<text text-anchor="middle" x="145" y="-230.3" font-family="Times,serif" font-size="14.00">kernel_image</text>
</g>
<!-- disk_image -->
<g id="node20" class="node"><title>disk_image</title>
<polygon fill="none" stroke="black" points="334,-108 240,-108 236,-104 236,-72 330,-72 334,-76 334,-108"/>
<polyline fill="none" stroke="black" points="330,-104 236,-104 "/>
<polyline fill="none" stroke="black" points="330,-104 330,-72 "/>
<polyline fill="none" stroke="black" points="330,-104 334,-108 "/>
<text text-anchor="middle" x="285" y="-86.3" font-family="Times,serif" font-size="14.00">disk_image</text>
</g>
<!-- kernel_image&#45;&gt;disk_image -->
<g id="edge18" class="edge"><title>kernel_image&#45;&gt;disk_image</title>
<path fill="none" stroke="black" d="M132.391,-215.699C120.1,-196.525 105.368,-165.48 121,-144 144.819,-111.271 189.261,-98.3321 225.879,-93.4075"/>
<polygon fill="black" stroke="black" points="226.453,-96.8643 235.976,-92.2212 225.636,-89.9121 226.453,-96.8643"/>
</g>
<!-- modules -->
<g id="node7" class="node"><title>modules</title>
<polygon fill="none" stroke="black" points="296.5,-252 293.5,-256 272.5,-256 269.5,-252 219.5,-252 219.5,-216 296.5,-216 296.5,-252"/>
<text text-anchor="middle" x="258" y="-230.3" font-family="Times,serif" font-size="14.00">modules</text>
</g>
<!-- modules&#45;&gt;initrd -->
<g id="edge16" class="edge"><title>modules&#45;&gt;initrd</title>
<path fill="none" stroke="black" d="M296.732,-220.906C311.982,-216.432 329.713,-211.582 346,-208 401.806,-195.726 419.835,-208.94 473,-188 475.11,-187.169 477.221,-186.202 479.304,-185.14"/>
<polygon fill="black" stroke="black" points="481.275,-188.043 488.183,-180.01 477.773,-181.982 481.275,-188.043"/>
</g>
<!-- dtb -->
<g id="node8" class="node"><title>dtb</title>
<polygon fill="none" stroke="black" points="70,-252 67,-256 46,-256 43,-252 16,-252 16,-216 70,-216 70,-252"/>
<text text-anchor="middle" x="43" y="-230.3" font-family="Times,serif" font-size="14.00">dtb</text>
</g>
<!-- dtb&#45;&gt;disk_image -->
<g id="edge13" class="edge"><title>dtb&#45;&gt;disk_image</title>
<path fill="none" stroke="black" d="M51.8707,-215.645C63.0193,-195.528 84.0084,-162.745 111,-144 144.994,-120.392 189.787,-107.065 225.412,-99.68"/>
<polygon fill="black" stroke="black" points="226.537,-103.026 235.674,-97.6625 225.187,-96.1572 226.537,-103.026"/>
</g>
<!-- github_release -->
<g id="node9" class="node"><title>github_release</title>
<ellipse fill="none" stroke="black" cx="137" cy="-306" rx="79.0865" ry="18"/>
<text text-anchor="middle" x="137" y="-302.3" font-family="Times,serif" font-size="14.00">github_release</text>
</g>
<!-- github_release&#45;&gt;kernel_image -->
<g id="edge3" class="edge"><title>github_release&#45;&gt;kernel_image</title>
<path fill="none" stroke="black" d="M138.978,-287.697C139.859,-279.983 140.919,-270.712 141.901,-262.112"/>
<polygon fill="black" stroke="black" points="145.387,-262.437 143.045,-252.104 138.432,-261.642 145.387,-262.437"/>
</g>
<!-- github_release&#45;&gt;modules -->
<g id="edge4" class="edge"><title>github_release&#45;&gt;modules</title>
<path fill="none" stroke="black" d="M164.76,-288.941C180.921,-279.591 201.542,-267.662 219.28,-257.4"/>
<polygon fill="black" stroke="black" points="221.352,-260.245 228.255,-252.208 217.846,-254.186 221.352,-260.245"/>
</g>
<!-- github_release&#45;&gt;dtb -->
<g id="edge5" class="edge"><title>github_release&#45;&gt;dtb</title>
<path fill="none" stroke="black" d="M114.723,-288.411C102.699,-279.456 87.6558,-268.254 74.4561,-258.425"/>
<polygon fill="black" stroke="black" points="76.2093,-255.367 66.0984,-252.201 72.0284,-260.981 76.2093,-255.367"/>
</g>
<!-- upstream_firmware -->
<g id="node10" class="node"><title>upstream_firmware</title>
<polygon fill="none" stroke="black" points="471.5,-324 468.5,-328 447.5,-328 444.5,-324 314.5,-324 314.5,-288 471.5,-288 471.5,-324"/>
<text text-anchor="middle" x="393" y="-302.3" font-family="Times,serif" font-size="14.00">upstream_firmware</text>
</g>
<!-- firmware -->
<g id="node11" class="node"><title>firmware</title>
<polygon fill="none" stroke="black" points="436.5,-252 433.5,-256 412.5,-256 409.5,-252 355.5,-252 355.5,-216 436.5,-216 436.5,-252"/>
<text text-anchor="middle" x="396" y="-230.3" font-family="Times,serif" font-size="14.00">firmware</text>
</g>
<!-- upstream_firmware&#45;&gt;firmware -->
<g id="edge6" class="edge"><title>upstream_firmware&#45;&gt;firmware</title>
<path fill="none" stroke="black" d="M393.742,-287.697C394.072,-279.983 394.469,-270.712 394.838,-262.112"/>
<polygon fill="black" stroke="black" points="398.335,-262.245 395.267,-252.104 391.342,-261.945 398.335,-262.245"/>
</g>
<!-- firmware&#45;&gt;initrd -->
<g id="edge14" class="edge"><title>firmware&#45;&gt;initrd</title>
<path fill="none" stroke="black" d="M426.258,-215.926C440.562,-207.7 457.797,-197.564 473,-188 474.107,-187.303 475.229,-186.59 476.36,-185.865"/>
<polygon fill="black" stroke="black" points="478.616,-188.571 485.068,-180.168 474.784,-182.713 478.616,-188.571"/>
</g>
<!-- cjdns_deb -->
<g id="node12" class="node"><title>cjdns_deb</title>
<polygon fill="none" stroke="black" points="578.5,-324 575.5,-328 554.5,-328 551.5,-324 489.5,-324 489.5,-288 578.5,-288 578.5,-324"/>
<text text-anchor="middle" x="534" y="-302.3" font-family="Times,serif" font-size="14.00">cjdns_deb</text>
</g>
<!-- cjdns_extract -->
<g id="node13" class="node"><title>cjdns_extract</title>
<polygon fill="none" stroke="black" points="575,-252 572,-256 551,-256 548,-252 461,-252 461,-216 575,-216 575,-252"/>
<text text-anchor="middle" x="518" y="-230.3" font-family="Times,serif" font-size="14.00">cjdns_extract</text>
</g>
<!-- cjdns_deb&#45;&gt;cjdns_extract -->
<g id="edge7" class="edge"><title>cjdns_deb&#45;&gt;cjdns_extract</title>
<path fill="none" stroke="black" d="M530.045,-287.697C528.282,-279.983 526.163,-270.712 524.197,-262.112"/>
<polygon fill="black" stroke="black" points="527.55,-261.073 521.91,-252.104 520.726,-262.633 527.55,-261.073"/>
</g>
<!-- cjdns_extract&#45;&gt;initrd -->
<g id="edge17" class="edge"><title>cjdns_extract&#45;&gt;initrd</title>
<path fill="none" stroke="black" d="M516.022,-215.697C515.141,-207.983 514.081,-198.712 513.099,-190.112"/>
<polygon fill="black" stroke="black" points="516.568,-189.642 511.955,-180.104 509.613,-190.437 516.568,-189.642"/>
</g>
<!-- boot -->
<g id="node14" class="node"><title>boot</title>
<text text-anchor="middle" x="583" y="-158.3" font-family="Times,serif" font-size="14.00">boot</text>
</g>
<!-- initrd&#45;&gt;disk_image -->
<g id="edge11" class="edge"><title>initrd&#45;&gt;disk_image</title>
<path fill="none" stroke="black" d="M481.909,-147.545C478.928,-146.282 475.919,-145.075 473,-144 430.642,-128.406 381.507,-114.7 344.094,-105.135"/>
<polygon fill="black" stroke="black" points="344.911,-101.731 334.358,-102.671 343.194,-108.517 344.911,-101.731"/>
</g>
<!-- conf_d -->
<g id="node16" class="node"><title>conf_d</title>
<polygon fill="none" stroke="black" points="464,-180 461,-184 440,-184 437,-180 404,-180 404,-144 464,-144 464,-180"/>
<text text-anchor="middle" x="434" y="-158.3" font-family="Times,serif" font-size="14.00">conf.d</text>
</g>
<!-- conf_d&#45;&gt;disk_image -->
<g id="edge12" class="edge"><title>conf_d&#45;&gt;disk_image</title>
<path fill="none" stroke="black" d="M403.848,-146.834C382.828,-136.959 354.403,-123.605 330.622,-112.433"/>
<polygon fill="black" stroke="black" points="331.965,-109.197 321.426,-108.113 328.988,-115.533 331.965,-109.197"/>
</g>
<!-- spl -->
<g id="node17" class="node"><title>spl</title>
<polygon fill="none" stroke="black" points="386,-180 336,-180 332,-176 332,-144 382,-144 386,-148 386,-180"/>
<polyline fill="none" stroke="black" points="382,-176 332,-176 "/>
<polyline fill="none" stroke="black" points="382,-176 382,-144 "/>
<polyline fill="none" stroke="black" points="382,-176 386,-180 "/>
<text text-anchor="middle" x="359" y="-158.3" font-family="Times,serif" font-size="14.00">spl</text>
</g>
<!-- spl&#45;&gt;disk_image -->
<g id="edge8" class="edge"><title>spl&#45;&gt;disk_image</title>
<path fill="none" stroke="black" d="M340.708,-143.697C331.567,-135.05 320.36,-124.449 310.4,-115.027"/>
<polygon fill="black" stroke="black" points="312.752,-112.434 303.082,-108.104 307.941,-117.519 312.752,-112.434"/>
</g>
<!-- uboot -->
<g id="node18" class="node"><title>uboot</title>
<polygon fill="none" stroke="black" points="313.5,-180 260.5,-180 256.5,-176 256.5,-144 309.5,-144 313.5,-148 313.5,-180"/>
<polyline fill="none" stroke="black" points="309.5,-176 256.5,-176 "/>
<polyline fill="none" stroke="black" points="309.5,-176 309.5,-144 "/>
<polyline fill="none" stroke="black" points="309.5,-176 313.5,-180 "/>
<text text-anchor="middle" x="285" y="-158.3" font-family="Times,serif" font-size="14.00">uboot</text>
</g>
<!-- uboot&#45;&gt;disk_image -->
<g id="edge9" class="edge"><title>uboot&#45;&gt;disk_image</title>
<path fill="none" stroke="black" d="M285,-143.697C285,-135.983 285,-126.712 285,-118.112"/>
<polygon fill="black" stroke="black" points="288.5,-118.104 285,-108.104 281.5,-118.104 288.5,-118.104"/>
</g>
<!-- uboot_config -->
<g id="node19" class="node"><title>uboot_config</title>
<polygon fill="none" stroke="black" points="238,-180 235,-184 214,-184 211,-180 130,-180 130,-144 238,-144 238,-180"/>
<text text-anchor="middle" x="184" y="-158.3" font-family="Times,serif" font-size="14.00">uboot_config</text>
</g>
<!-- uboot_config&#45;&gt;disk_image -->
<g id="edge10" class="edge"><title>uboot_config&#45;&gt;disk_image</title>
<path fill="none" stroke="black" d="M208.707,-143.876C221.669,-134.893 237.728,-123.763 251.765,-114.034"/>
<polygon fill="black" stroke="black" points="253.972,-116.763 260.198,-108.19 249.985,-111.009 253.972,-116.763"/>
</g>
<!-- sdcard -->
<g id="node21" class="node"><title>sdcard</title>
<polygon fill="none" stroke="black" points="317.5,-36 314.5,-40 293.5,-40 290.5,-36 252.5,-36 252.5,-0 317.5,-0 317.5,-36"/>
<text text-anchor="middle" x="285" y="-14.3" font-family="Times,serif" font-size="14.00">sdcard</text>
</g>
<!-- disk_image&#45;&gt;sdcard -->
<g id="edge19" class="edge"><title>disk_image&#45;&gt;sdcard</title>
<path fill="none" stroke="black" d="M285,-71.6966C285,-63.9827 285,-54.7125 285,-46.1124"/>
<polygon fill="black" stroke="black" points="288.5,-46.1043 285,-36.1043 281.5,-46.1044 288.5,-46.1043"/>
</g>
</g>
</svg>
