<?xml version="1.0" encoding="UTF-8" standalone="no"?>
<!DOCTYPE svg PUBLIC "-//W3C//DTD SVG 1.1//EN"
 "http://www.w3.org/Graphics/SVG/1.1/DTD/svg11.dtd">
<!-- Generated by graphviz version 2.38.0 (20140413.2041)
 -->
<!-- Title: g Pages: 1 -->
<svg width="730pt" height="476pt"
 viewBox="0.00 0.00 729.50 476.00" xmlns="http://www.w3.org/2000/svg" xmlns:xlink="http://www.w3.org/1999/xlink">
<g id="graph0" class="graph" transform="scale(1 1) rotate(0) translate(4 472)">
<title>g</title>
<polygon fill="white" stroke="none" points="-4,4 -4,-472 725.5,-472 725.5,4 -4,4"/>
<!-- package_repo -->
<g id="node1" class="node"><title>package_repo</title>
<polygon fill="none" stroke="black" points="216.5,-396 213.5,-400 192.5,-400 189.5,-396 100.5,-396 100.5,-360 216.5,-360 216.5,-396"/>
<text text-anchor="middle" x="158.5" y="-374.3" font-family="Times,serif" font-size="14.00">package_repo</text>
</g>
<!-- multistrap -->
<g id="node9" class="node"><title>multistrap</title>
<ellipse fill="none" stroke="black" cx="228.5" cy="-306" rx="59.5901" ry="18"/>
<text text-anchor="middle" x="228.5" y="-302.3" font-family="Times,serif" font-size="14.00">multistrap</text>
</g>
<!-- package_repo&#45;&gt;multistrap -->
<g id="edge1" class="edge"><title>package_repo&#45;&gt;multistrap</title>
<path fill="none" stroke="black" d="M175.803,-359.697C184.493,-351.007 195.157,-340.343 204.613,-330.887"/>
<polygon fill="black" stroke="black" points="207.281,-333.168 211.878,-323.622 202.332,-328.219 207.281,-333.168"/>
</g>
<!-- package_list -->
<g id="node2" class="node"><title>package_list</title>
<polygon fill="none" stroke="black" points="101,-468 0,-468 0,-432 107,-432 107,-462 101,-468"/>
<polyline fill="none" stroke="black" points="101,-468 101,-462 "/>
<polyline fill="none" stroke="black" points="107,-462 101,-462 "/>
<text text-anchor="middle" x="53.5" y="-446.3" font-family="Times,serif" font-size="14.00">package_list</text>
</g>
<!-- multistrap_conf -->
<g id="node4" class="node"><title>multistrap_conf</title>
<polygon fill="none" stroke="black" points="358.5,-396 234.5,-396 234.5,-360 364.5,-360 364.5,-390 358.5,-396"/>
<polyline fill="none" stroke="black" points="358.5,-396 358.5,-390 "/>
<polyline fill="none" stroke="black" points="364.5,-390 358.5,-390 "/>
<text text-anchor="middle" x="299.5" y="-374.3" font-family="Times,serif" font-size="14.00">multistrap_conf</text>
</g>
<!-- package_list&#45;&gt;multistrap_conf -->
<g id="edge6" class="edge"><title>package_list&#45;&gt;multistrap_conf</title>
<path fill="none" stroke="black" d="M107.182,-433.725C143.152,-423.489 190.866,-409.912 229.769,-398.842"/>
<polygon fill="black" stroke="black" points="230.797,-402.189 239.457,-396.085 228.881,-395.456 230.797,-402.189"/>
</g>
<!-- multistrap_template -->
<g id="node3" class="node"><title>multistrap_template</title>
<polygon fill="none" stroke="black" points="282,-468 125,-468 125,-432 288,-432 288,-462 282,-468"/>
<polyline fill="none" stroke="black" points="282,-468 282,-462 "/>
<polyline fill="none" stroke="black" points="288,-462 282,-462 "/>
<text text-anchor="middle" x="206.5" y="-446.3" font-family="Times,serif" font-size="14.00">multistrap_template</text>
</g>
<!-- multistrap_template&#45;&gt;multistrap_conf -->
<g id="edge5" class="edge"><title>multistrap_template&#45;&gt;multistrap_conf</title>
<path fill="none" stroke="black" d="M229.489,-431.697C241.314,-422.796 255.892,-411.823 268.679,-402.199"/>
<polygon fill="black" stroke="black" points="270.891,-404.915 276.776,-396.104 266.681,-399.322 270.891,-404.915"/>
</g>
<!-- multistrap_conf&#45;&gt;multistrap -->
<g id="edge7" class="edge"><title>multistrap_conf&#45;&gt;multistrap</title>
<path fill="none" stroke="black" d="M281.949,-359.697C273.136,-351.007 262.319,-340.343 252.728,-330.887"/>
<polygon fill="black" stroke="black" points="254.938,-328.151 245.36,-323.622 250.024,-333.135 254.938,-328.151"/>
</g>
<!-- delete_list -->
<g id="node5" class="node"><title>delete_list</title>
<polygon fill="none" stroke="black" points="391,-324 306,-324 306,-288 397,-288 397,-318 391,-324"/>
<polyline fill="none" stroke="black" points="391,-324 391,-318 "/>
<polyline fill="none" stroke="black" points="397,-318 391,-318 "/>
<text text-anchor="middle" x="351.5" y="-302.3" font-family="Times,serif" font-size="14.00">delete_list</text>
</g>
<!-- minimise -->
<g id="node10" class="node"><title>minimise</title>
<ellipse fill="none" stroke="black" cx="289.5" cy="-234" rx="53.0913" ry="18"/>
<text text-anchor="middle" x="289.5" y="-230.3" font-family="Times,serif" font-size="14.00">minimise</text>
</g>
<!-- delete_list&#45;&gt;minimise -->
<g id="edge8" class="edge"><title>delete_list&#45;&gt;minimise</title>
<path fill="none" stroke="black" d="M336.174,-287.697C328.554,-279.093 319.219,-268.554 310.906,-259.168"/>
<polygon fill="black" stroke="black" points="313.473,-256.788 304.223,-251.622 308.233,-261.429 313.473,-256.788"/>
</g>
<!-- fixup_scripts -->
<g id="node6" class="node"><title>fixup_scripts</title>
<polygon fill="none" stroke="black" points="464,-252 361,-252 361,-216 470,-216 470,-246 464,-252"/>
<polyline fill="none" stroke="black" points="464,-252 464,-246 "/>
<polyline fill="none" stroke="black" points="470,-246 464,-246 "/>
<text text-anchor="middle" x="415.5" y="-230.3" font-family="Times,serif" font-size="14.00">fixup_scripts</text>
</g>
<!-- fixup -->
<g id="node11" class="node"><title>fixup</title>
<ellipse fill="none" stroke="black" cx="415.5" cy="-162" rx="33.5952" ry="18"/>
<text text-anchor="middle" x="415.5" y="-158.3" font-family="Times,serif" font-size="14.00">fixup</text>
</g>
<!-- fixup_scripts&#45;&gt;fixup -->
<g id="edge9" class="edge"><title>fixup_scripts&#45;&gt;fixup</title>
<path fill="none" stroke="black" d="M415.5,-215.697C415.5,-207.983 415.5,-198.712 415.5,-190.112"/>
<polygon fill="black" stroke="black" points="419,-190.104 415.5,-180.104 412,-190.104 419,-190.104"/>
</g>
<!-- add_files -->
<g id="node7" class="node"><title>add_files</title>
<polygon fill="none" stroke="black" points="541.5,-180 467.5,-180 467.5,-144 547.5,-144 547.5,-174 541.5,-180"/>
<polyline fill="none" stroke="black" points="541.5,-180 541.5,-174 "/>
<polyline fill="none" stroke="black" points="547.5,-174 541.5,-174 "/>
<text text-anchor="middle" x="507.5" y="-158.3" font-family="Times,serif" font-size="14.00">add_files</text>
</g>
<!-- customise -->
<g id="node12" class="node"><title>customise</title>
<ellipse fill="none" stroke="black" cx="507.5" cy="-90" rx="57.6901" ry="18"/>
<text text-anchor="middle" x="507.5" y="-86.3" font-family="Times,serif" font-size="14.00">customise</text>
</g>
<!-- add_files&#45;&gt;customise -->
<g id="edge10" class="edge"><title>add_files&#45;&gt;customise</title>
<path fill="none" stroke="black" d="M507.5,-143.697C507.5,-135.983 507.5,-126.712 507.5,-118.112"/>
<polygon fill="black" stroke="black" points="511,-118.104 507.5,-108.104 504,-118.104 511,-118.104"/>
</g>
<!-- userspace_initrd -->
<g id="node8" class="node"><title>userspace_initrd</title>
<polygon fill="none" stroke="black" points="576,-36 443,-36 439,-32 439,-0 572,-0 576,-4 576,-36"/>
<polyline fill="none" stroke="black" points="572,-32 439,-32 "/>
<polyline fill="none" stroke="black" points="572,-32 572,-0 "/>
<polyline fill="none" stroke="black" points="572,-32 576,-36 "/>
<text text-anchor="middle" x="507.5" y="-14.3" font-family="Times,serif" font-size="14.00">userspace_initrd</text>
</g>
<!-- multistrap&#45;&gt;minimise -->
<g id="edge2" class="edge"><title>multistrap&#45;&gt;minimise</title>
<path fill="none" stroke="black" d="M242.956,-288.411C250.553,-279.693 260.006,-268.845 268.405,-259.208"/>
<polygon fill="black" stroke="black" points="271.216,-261.309 275.148,-251.47 265.939,-256.71 271.216,-261.309"/>
</g>
<!-- minimise&#45;&gt;fixup -->
<g id="edge3" class="edge"><title>minimise&#45;&gt;fixup</title>
<path fill="none" stroke="black" d="M315.914,-218.326C335.778,-207.29 363.068,-192.129 384.057,-180.468"/>
<polygon fill="black" stroke="black" points="385.875,-183.462 392.917,-175.546 382.476,-177.343 385.875,-183.462"/>
</g>
<!-- fixup&#45;&gt;customise -->
<g id="edge4" class="edge"><title>fixup&#45;&gt;customise</title>
<path fill="none" stroke="black" d="M434.118,-146.834C446.846,-137.15 463.972,-124.119 478.478,-113.082"/>
<polygon fill="black" stroke="black" points="480.824,-115.695 486.663,-106.854 476.586,-110.124 480.824,-115.695"/>
</g>
<!-- customise&#45;&gt;userspace_initrd -->
<g id="edge11" class="edge"><title>customise&#45;&gt;userspace_initrd</title>
<path fill="none" stroke="black" d="M507.5,-71.6966C507.5,-63.9827 507.5,-54.7125 507.5,-46.1124"/>
<polygon fill="black" stroke="black" points="511,-46.1043 507.5,-36.1043 504,-46.1044 511,-46.1043"/>
</g>
<!-- external_package_list -->
<g id="node13" class="node"><title>external_package_list</title>
<polygon fill="none" stroke="blue" points="473,-468 306,-468 306,-432 479,-432 479,-462 473,-468"/>
<polyline fill="none" stroke="blue" points="473,-468 473,-462 "/>
<polyline fill="none" stroke="blue" points="479,-462 473,-462 "/>
<text text-anchor="middle" x="392.5" y="-446.3" font-family="Times,serif" font-size="14.00">external_package_list</text>
</g>
<!-- external_package_list&#45;&gt;multistrap_conf -->
<g id="edge12" class="edge"><title>external_package_list&#45;&gt;multistrap_conf</title>
<path fill="none" stroke="black" d="M369.511,-431.697C357.686,-422.796 343.108,-411.823 330.321,-402.199"/>
<polygon fill="black" stroke="black" points="332.319,-399.322 322.224,-396.104 328.109,-404.915 332.319,-399.322"/>
</g>
<!-- replace_multistrap_template -->
<g id="node14" class="node"><title>replace_multistrap_template</title>
<polygon fill="none" stroke="blue" points="715.5,-468 497.5,-468 497.5,-432 721.5,-432 721.5,-462 715.5,-468"/>
<polyline fill="none" stroke="blue" points="715.5,-468 715.5,-462 "/>
<polyline fill="none" stroke="blue" points="721.5,-462 715.5,-462 "/>
<text text-anchor="middle" x="609.5" y="-446.3" font-family="Times,serif" font-size="14.00">replace_multistrap_template</text>
</g>
<!-- replace_multistrap_template&#45;&gt;multistrap_conf -->
<g id="edge13" class="edge"><title>replace_multistrap_template&#45;&gt;multistrap_conf</title>
<path fill="none" stroke="black" d="M534.062,-431.966C485.606,-421.024 422.916,-406.868 374.538,-395.944"/>
<polygon fill="black" stroke="black" points="375.278,-392.523 364.753,-393.734 373.736,-399.351 375.278,-392.523"/>
</g>
<!-- external_fixup_scripts -->
<g id="node15" class="node"><title>external_fixup_scripts</title>
<polygon fill="none" stroke="blue" points="658.5,-252 488.5,-252 488.5,-216 664.5,-216 664.5,-246 658.5,-252"/>
<polyline fill="none" stroke="blue" points="658.5,-252 658.5,-246 "/>
<polyline fill="none" stroke="blue" points="664.5,-246 658.5,-246 "/>
<text text-anchor="middle" x="576.5" y="-230.3" font-family="Times,serif" font-size="14.00">external_fixup_scripts</text>
</g>
<!-- external_fixup_scripts&#45;&gt;fixup -->
<g id="edge14" class="edge"><title>external_fixup_scripts&#45;&gt;fixup</title>
<path fill="none" stroke="black" d="M537.115,-215.876C510.535,-204.319 475.779,-189.208 450.233,-178.101"/>
<polygon fill="black" stroke="black" points="451.495,-174.834 440.929,-174.056 448.704,-181.253 451.495,-174.834"/>
</g>
<!-- external_add_files -->
<g id="node16" class="node"><title>external_add_files</title>
<polygon fill="none" stroke="blue" points="705.5,-180 565.5,-180 565.5,-144 711.5,-144 711.5,-174 705.5,-180"/>
<polyline fill="none" stroke="blue" points="705.5,-180 705.5,-174 "/>
<polyline fill="none" stroke="blue" points="711.5,-174 705.5,-174 "/>
<text text-anchor="middle" x="638.5" y="-158.3" font-family="Times,serif" font-size="14.00">external_add_files</text>
</g>
<!-- external_add_files&#45;&gt;customise -->
<g id="edge15" class="edge"><title>external_add_files&#45;&gt;customise</title>
<path fill="none" stroke="black" d="M606.454,-143.876C587.621,-133.813 563.745,-121.055 544.164,-110.592"/>
<polygon fill="black" stroke="black" points="545.691,-107.439 535.222,-105.813 542.392,-113.613 545.691,-107.439"/>
</g>
</g>
</svg>
