<?xml version="1.0" encoding="UTF-8" standalone="no"?>
<!DOCTYPE svg PUBLIC "-//W3C//DTD SVG 1.1//EN"
 "http://www.w3.org/Graphics/SVG/1.1/DTD/svg11.dtd">
<!-- Generated by graphviz version 2.38.0 (20140413.2041)
 -->
<!-- Title: g Pages: 1 -->
<svg width="382pt" height="332pt"
 viewBox="0.00 0.00 381.50 332.00" xmlns="http://www.w3.org/2000/svg" xmlns:xlink="http://www.w3.org/1999/xlink">
<g id="graph0" class="graph" transform="scale(1 1) rotate(0) translate(4 328)">
<title>g</title>
<polygon fill="white" stroke="none" points="-4,4 -4,-328 377.5,-328 377.5,4 -4,4"/>
<!-- kernel_config -->
<g id="node1" class="node"><title>kernel_config</title>
<polygon fill="none" stroke="black" points="153,-252 46,-252 46,-216 159,-216 159,-246 153,-252"/>
<polyline fill="none" stroke="black" points="153,-252 153,-246 "/>
<polyline fill="none" stroke="black" points="159,-246 153,-246 "/>
<text text-anchor="middle" x="102.5" y="-230.3" font-family="Times,serif" font-size="14.00">kernel_config</text>
</g>
<!-- kernel_build -->
<g id="node8" class="node"><title>kernel_build</title>
<ellipse fill="none" stroke="black" cx="169.5" cy="-162" rx="68.7879" ry="18"/>
<text text-anchor="middle" x="169.5" y="-158.3" font-family="Times,serif" font-size="14.00">kernel_build</text>
</g>
<!-- kernel_config&#45;&gt;kernel_build -->
<g id="edge4" class="edge"><title>kernel_config&#45;&gt;kernel_build</title>
<path fill="none" stroke="black" d="M119.062,-215.697C127.379,-207.007 137.586,-196.343 146.637,-186.887"/>
<polygon fill="black" stroke="black" points="149.204,-189.267 153.59,-179.622 144.147,-184.426 149.204,-189.267"/>
</g>
<!-- mainline_source -->
<g id="node2" class="node"><title>mainline_source</title>
<polygon fill="none" stroke="black" points="229.5,-324 226.5,-328 205.5,-328 202.5,-324 95.5,-324 95.5,-288 229.5,-288 229.5,-324"/>
<text text-anchor="middle" x="162.5" y="-302.3" font-family="Times,serif" font-size="14.00">mainline_source</text>
</g>
<!-- kernel_source -->
<g id="node4" class="node"><title>kernel_source</title>
<polygon fill="none" stroke="black" points="295.5,-252 292.5,-256 271.5,-256 268.5,-252 177.5,-252 177.5,-216 295.5,-216 295.5,-252"/>
<text text-anchor="middle" x="236.5" y="-230.3" font-family="Times,serif" font-size="14.00">kernel_source</text>
</g>
<!-- mainline_source&#45;&gt;kernel_source -->
<g id="edge2" class="edge"><title>mainline_source&#45;&gt;kernel_source</title>
<path fill="none" stroke="black" d="M180.792,-287.697C189.933,-279.05 201.14,-268.449 211.1,-259.027"/>
<polygon fill="black" stroke="black" points="213.559,-261.519 218.418,-252.104 208.748,-256.434 213.559,-261.519"/>
</g>
<!-- kernel_patches -->
<g id="node3" class="node"><title>kernel_patches</title>
<polygon fill="none" stroke="black" points="373.5,-324 370.5,-328 349.5,-328 346.5,-324 247.5,-324 247.5,-288 373.5,-288 373.5,-324"/>
<text text-anchor="middle" x="310.5" y="-302.3" font-family="Times,serif" font-size="14.00">kernel_patches</text>
</g>
<!-- kernel_patches&#45;&gt;kernel_source -->
<g id="edge1" class="edge"><title>kernel_patches&#45;&gt;kernel_source</title>
<path fill="none" stroke="black" d="M292.208,-287.697C283.067,-279.05 271.86,-268.449 261.9,-259.027"/>
<polygon fill="black" stroke="black" points="264.252,-256.434 254.582,-252.104 259.441,-261.519 264.252,-256.434"/>
</g>
<!-- kernel_source&#45;&gt;kernel_build -->
<g id="edge3" class="edge"><title>kernel_source&#45;&gt;kernel_build</title>
<path fill="none" stroke="black" d="M219.938,-215.697C211.621,-207.007 201.414,-196.343 192.363,-186.887"/>
<polygon fill="black" stroke="black" points="194.853,-184.426 185.41,-179.622 189.796,-189.267 194.853,-184.426"/>
</g>
<!-- kernel_image -->
<g id="node5" class="node"><title>kernel_image</title>
<polygon fill="none" stroke="black" points="113,-36 4,-36 0,-32 0,-0 109,-0 113,-4 113,-36"/>
<polyline fill="none" stroke="black" points="109,-32 0,-32 "/>
<polyline fill="none" stroke="black" points="109,-32 109,-0 "/>
<polyline fill="none" stroke="black" points="109,-32 113,-36 "/>
<text text-anchor="middle" x="56.5" y="-14.3" font-family="Times,serif" font-size="14.00">kernel_image</text>
</g>
<!-- modules -->
<g id="node6" class="node"><title>modules</title>
<polygon fill="none" stroke="black" points="208,-36 205,-40 184,-40 181,-36 131,-36 131,-0 208,-0 208,-36"/>
<text text-anchor="middle" x="169.5" y="-14.3" font-family="Times,serif" font-size="14.00">modules</text>
</g>
<!-- dtb -->
<g id="node7" class="node"><title>dtb</title>
<polygon fill="none" stroke="black" points="280.5,-36 277.5,-40 256.5,-40 253.5,-36 226.5,-36 226.5,-0 280.5,-0 280.5,-36"/>
<text text-anchor="middle" x="253.5" y="-14.3" font-family="Times,serif" font-size="14.00">dtb</text>
</g>
<!-- github_release -->
<g id="node9" class="node"><title>github_release</title>
<ellipse fill="none" stroke="black" cx="169.5" cy="-90" rx="79.0865" ry="18"/>
<text text-anchor="middle" x="169.5" y="-86.3" font-family="Times,serif" font-size="14.00">github_release</text>
</g>
<!-- kernel_build&#45;&gt;github_release -->
<g id="edge5" class="edge"><title>kernel_build&#45;&gt;github_release</title>
<path fill="none" stroke="black" d="M169.5,-143.697C169.5,-135.983 169.5,-126.712 169.5,-118.112"/>
<polygon fill="black" stroke="black" points="173,-118.104 169.5,-108.104 166,-118.104 173,-118.104"/>
</g>
<!-- github_release&#45;&gt;kernel_image -->
<g id="edge6" class="edge"><title>github_release&#45;&gt;kernel_image</title>
<path fill="none" stroke="black" d="M143.576,-72.9406C128.622,-63.677 109.578,-51.8803 93.1162,-41.6826"/>
<polygon fill="black" stroke="black" points="94.6228,-38.4988 84.2786,-36.208 90.9365,-44.4495 94.6228,-38.4988"/>
</g>
<!-- github_release&#45;&gt;modules -->
<g id="edge7" class="edge"><title>github_release&#45;&gt;modules</title>
<path fill="none" stroke="black" d="M169.5,-71.6966C169.5,-63.9827 169.5,-54.7125 169.5,-46.1124"/>
<polygon fill="black" stroke="black" points="173,-46.1043 169.5,-36.1043 166,-46.1044 173,-46.1043"/>
</g>
<!-- github_release&#45;&gt;dtb -->
<g id="edge8" class="edge"><title>github_release&#45;&gt;dtb</title>
<path fill="none" stroke="black" d="M189.407,-72.411C200.05,-63.5417 213.339,-52.4675 225.053,-42.706"/>
<polygon fill="black" stroke="black" points="227.417,-45.2916 232.859,-36.201 222.936,-39.9141 227.417,-45.2916"/>
</g>
</g>
</svg>
